<svg width="860" height="565" viewBox="0 0 860 565" fill="none" xmlns="http://www.w3.org/2000/svg">
<path d="M29.53 511.9C26.68 513.56 23.24 513.81 19.95 513.85C16.72 513.88 13.47 513.74 10.34 512.93C7.20996 512.12 4.20996 510.61 2.03996 508.23C1.38996 507.51 0.799959 506.71 0.459959 505.81C0.179959 505.06 0.069959 504.26 0.039959 503.46C-0.050041 501.06 0.599959 498.63 1.93996 496.65C3.27996 494.67 5.34996 493.16 7.66996 492.56C8.88996 492.25 10.15 492.19 11.41 492.1C13.67 491.95 15.93 491.73 18.18 491.45C19.29 491.31 20.47 491.12 21.33 490.4C24.39 486.52 26.03 481.53 27.42 476.62C37.06 442.47 37.34 406.21 32.83 370.86C36.56 381.43 39.41 392.3 41.35 403.33C42.1 407.58 42.71 411.85 43.26 416.12C45.26 431.57 46.5 447.14 46.4 462.8C46.04 475.07 45.6 487.69 40.67 498.88C38.52 504.34 34.47 509.02 29.53 511.9Z" fill="#AF0529"/>
<path d="M118.67 159.49C110.38 157.45 101.54 158.36 93.4699 161.14C85.3999 163.92 78.0499 168.49 71.3099 173.74C54.1199 187.3 40.4799 205.28 31.9299 225.44C30.1199 229.53 28.5699 233.79 27.1899 238.1C17.2499 268.93 15.2499 302.29 21.4399 334.08C10.9599 308.22 9.49991 279.18 14.8699 251.8C21.0199 228.01 30.6399 205.21 43.3799 184.31C50.5599 172.11 58.0899 160.32 65.8599 148.69C68.6299 145.7 69.7599 141.86 70.1799 138.04C70.5999 134.23 70.3499 130.37 70.3099 126.54C70.2699 123.08 70.3999 119.62 70.6799 116.18C70.7499 111.76 73.3399 107.98 75.8399 104.49C80.1999 98.4 84.5699 92.31 88.9299 86.22C89.6999 84.68 90.6499 83.4 92.0099 82.8C93.6399 82.08 95.6099 82.48 97.0899 83.47C98.5699 84.46 99.6299 85.97 100.47 87.54C102.38 91.08 103.36 95.03 104.78 98.79C105.69 101.2 106.79 103.54 107.92 105.86C108.69 107.44 109.47 109.02 110.27 110.59C111.66 113.33 113.15 116.13 115.54 118.06C117.65 119.77 120.3 120.65 122.9 121.44C127.23 122.76 131.6 123.93 136.01 124.94C138.35 125.19 140.59 125.24 142.69 124.64C143.95 124.28 145.13 123.7 146.3 123.1C150.26 121.09 154.17 118.94 157.72 116.28C161.32 113.59 164.59 110.35 168.68 108.49C173.09 105.94 177.91 103.95 182.9 102.55C183.35 102.42 183.83 102.3 184.28 102.43C184.91 102.62 185.3 103.28 185.37 103.93C185.44 104.58 185.24 105.23 185.03 105.85C182.96 111.93 179.23 117.27 175.55 122.53C173.27 125.78 170.99 129.04 168.71 132.29C165.66 137.35 163.43 143.42 165.31 148.95C165.85 150.53 166.7 151.99 167.46 153.48C173.03 164.46 173.35 177.97 168.31 189.21C166.76 192.66 164.71 195.99 164.25 199.74C163.95 202.12 164.32 204.54 164.1 206.93C163.56 212.77 159.46 217.86 154.36 220.75C149.26 223.64 143.28 224.6 137.18 224.83C135.99 223.51 136.07 221.51 136.22 219.73C136.95 211.29 137.75 202.83 137.38 194.37C137.01 185.91 135.44 177.38 131.72 169.77C128.36 165.15 123.99 160.8 118.67 159.49Z" fill="#AF0529" stroke="#AF0529" stroke-miterlimit="10"/>
<path d="M67.62 535.5C99.41 488.7 113.71 432.47 125.47 376.83C132.09 343 135.4 308.53 135.36 274.07C134.17 296.25 130.03 318.14 125.9 339.96C124.36 348.12 122.81 356.28 121.01 364.39C114.96 391.54 105.96 418.03 93.64 443.33C82.12 470.52 66.08 495.79 46.38 518.02C42.08 519.58 37.26 519.35 33.05 521.13C31.61 521.74 30.28 522.57 28.95 523.4C27.94 524.03 26.9 524.68 26.15 525.61C24.77 527.29 24.52 529.6 24.32 531.76C24.24 532.62 24.16 533.5 24.3 534.35C24.54 535.82 25.41 537.12 26.42 538.22C29.56 541.63 34.17 543.42 38.78 543.96C43.39 544.5 48.05 543.89 52.63 543.14C55.24 542.71 57.86 542.23 60.3 541.23C62.58 540.3 64.68 538.92 66.44 537.2C66.99 536.67 67.32 535.93 67.62 535.5Z" fill="#AF0529"/>
<path d="M353.07 512.69C347.26 506.68 340.4 501.68 332.9 497.98C325.36 494.26 316.79 491.56 311.57 484.96C306.59 478.67 305.73 470.14 305.53 462.13C305.78 398.34 278.67 334.94 232.37 291.58C215.67 274.36 195.21 260.81 172.84 252.16C182.25 258.4 191.73 264.68 199.86 272.52C203.87 276.38 207.52 280.6 211.16 284.81C222.33 297.75 233.48 310.82 242.61 325.48C255.92 346.56 269.2 367.81 278.95 390.75C288.7 413.7 294.84 438.6 292.75 463.62C292.92 471.44 295.86 479 299.96 485.66C304.06 492.32 309.29 498.2 314.19 504.07C319.01 509.39 323.62 514.91 328.01 520.6C330.24 523.49 332.45 526.49 333.63 529.95C334.81 533.41 334.85 537.44 332.99 540.91C328.98 545.75 322.98 548.5 316.94 550.24C308.84 552.57 300.38 553.35 291.96 553.73C253.12 555.49 214.27 549.09 175.35 550.83C146.33 549.98 117.2 553.17 89.0599 560.27C122.07 555.78 155.56 557.57 188.82 559.36C212.53 560.64 236.23 561.91 260.15 563.59C273.06 563.61 285.96 563.62 298.87 563.64C316.41 563.66 334.23 563.65 351.23 558.56C355.06 557.59 358.76 555.94 361.77 553.39C364.78 550.84 367.06 547.33 367.74 543.44C368.69 538.03 366.55 532.57 363.92 527.74C360.87 522.14 357.14 516.91 353.07 512.69Z" fill="#AF0529" stroke="#AF0529" stroke-miterlimit="10"/>
<path d="M694.68 338.32C679.96 368.43 674.56 402.11 669.35 435.21C666.02 456.31 662.7 477.41 659.37 498.51C658.78 502.25 658.23 506.27 659.89 509.67C661.94 513.86 666.72 515.86 671.15 517.31C681.52 520.7 692.75 523 703.3 520.19C707.1 519.18 711.09 517.12 712.36 513.4C713.08 511.28 712.78 508.92 711.98 506.83C708.71 498.19 698.71 494.7 690.37 490.74C689.49 490.32 688.58 489.86 687.99 489.07C687.14 487.94 687.14 486.41 687.17 484.99C687.69 463.42 688.45 441.86 689.44 420.31C690.09 406.26 690.84 392.21 692.32 378.22C694.21 360.42 697.28 342.74 701.52 325.35C698.41 329.83 696.33 334.94 694.68 338.32Z" fill="#004C90" stroke="#004C90" stroke-miterlimit="10"/>
<path d="M643 391.34C625.62 425.51 621.38 465.25 625.24 503.39C625.79 508.78 626.49 514.22 625.77 519.59C624.52 528.93 619.01 537.98 621.02 547.19C622.82 555.43 630.52 561.42 638.72 563.38C646.92 565.34 655.55 563.96 663.73 561.91C666.48 561.22 669.29 560.43 671.57 558.74C673.85 557.06 675.54 554.28 675.17 551.47C674.9 549.39 673.58 547.6 672.18 546.03C667.82 541.13 662.25 537.33 656.1 535.04C654.74 534.53 653.25 534.04 652.39 532.86C651.49 531.63 651.5 529.98 651.55 528.46C653.52 466.56 655.97 402.57 682.5 346.94C697.72 317.96 713.01 288.82 723.28 257.74C726.38 248.36 729.05 238.59 728.39 228.74C715.57 274.69 694.05 318.21 665.31 356.29C662.62 359.86 659.86 363.39 657.36 367.1C654.9 370.75 652.71 374.58 650.52 378.39C647.69 383.37 644.6 388.19 643 391.34Z" fill="#004C90" stroke="#004C90" stroke-miterlimit="10"/>
<path d="M712.33 199.41C718.51 192.18 723.43 183.89 726.83 175C729.97 166.77 731.79 158.1 733.22 149.41C736.62 128.75 737.89 107.59 734.92 86.87C747.51 123.6 743.72 165.62 724.76 199.5C718.91 209.95 710.83 220.27 698.94 223.47C695.25 223.84 691.54 222.73 688.28 220.97C685.02 219.21 682.15 216.82 679.3 214.45C669.19 206.03 659.09 197.62 648.98 189.2C657.29 196.24 666.07 202.95 676.06 207.28C682.71 210.16 690.23 211.94 697.19 209.94C703.3 208.18 708.47 203.94 712.33 199.41Z" fill="#004C90" stroke="#004C90" stroke-miterlimit="10"/>
<path d="M544.57 332.57C526.9 340.94 507.23 345.03 487.69 344.4C470.48 344.39 455.13 335.62 440.35 327.53C425.56 319.44 409.46 311.56 392.68 313.2C374.82 314.94 359.87 327.11 346.97 339.58C334.89 351.26 323.54 363.68 312.06 376.11C310.21 378.18 308.37 380.25 306.52 382.33C306.16 382.74 305.78 383.16 305.59 383.67C305.25 384.56 305.49 385.55 305.73 386.48C306.4 389.02 307.07 391.57 307.74 394.11C307.83 394.44 307.93 394.8 308.2 395.01C308.78 395.46 309.6 394.94 310.14 394.43C312.32 392.39 314.5 390.35 316.9 388.05C322.76 382.75 328.73 377.56 334.77 372.32C341.82 366.57 348.92 360.89 356.12 355.34C365.64 348 375.74 340.7 387.49 338.18C398.73 335.76 410.54 337.98 421.31 342C432.09 346.02 442.11 351.79 452.45 356.81C456.72 358.88 461.12 360.85 465.84 361.5C485.99 365.51 506.97 360.33 526.02 351.8C550.96 340.98 574.83 327.68 597.14 312.14C599.54 310.47 601.94 308.75 603.9 306.58C586.13 314.5 568.35 322.43 550.38 329.91C548.28 330.78 546.23 331.79 544.57 332.57Z" fill="#004C90" stroke="#004C90" stroke-miterlimit="10"/>
<path d="M640.83 153.73C637.09 158.74 633.35 163.75 629.61 168.76C629.39 169.05 629.14 169.37 628.79 169.46C628.11 169.64 627.54 168.96 627.19 168.35C624.78 164.14 623.35 159.38 623.05 154.54C622.94 152.85 622.98 151.15 623.01 149.45C623.15 141.47 623.31 133.44 624.91 125.62C621.42 132.76 617.88 140.05 616.78 147.92C615.68 155.79 617.42 164.48 623.18 169.96C624.27 171 625.6 172.14 625.54 173.65C625.51 174.42 625.1 175.11 624.7 175.77C623.14 178.32 621.5 180.82 619.77 183.26C615.76 189.51 610.9 195.09 605.33 199.83C604.16 200.83 602.96 201.79 601.71 202.68C594.94 207.54 586.94 210.44 578.83 212.38C557.43 214.47 535.94 213.16 514.55 212.05C508.89 211.76 503.19 211.48 497.57 212.18C464.56 213.98 431.55 216.46 398.58 219.45C368.42 223.55 337.56 227.87 311.6 243.3C295.85 252.66 282.45 265.94 272.75 281.63C268.39 289.03 264.04 296.43 259.68 303.83C259.44 304.24 259.14 304.7 258.67 304.78C258.11 304.88 257.62 304.42 257.24 304C254.88 301.4 252.53 298.79 250.17 296.19C249.68 295.65 249.17 295.08 248.93 294.39C248.35 292.74 249.4 291 250.39 289.55C254.58 283.37 258.35 276.89 261.6 270.13C262.49 268.71 263.39 267.27 263.91 265.67C264.43 264.07 264.53 262.28 263.84 260.75C262.95 258.78 260.94 257.6 259.01 256.63C252.13 253.18 244.69 250.84 238.11 246.85C237.12 246.25 236.14 245.6 235.39 244.72C234.02 243.1 233.59 240.89 233.4 238.78C232.9 233.17 233.96 226.99 238.33 223C244.9 217.25 253.58 214.29 262.27 213.39C270.96 212.49 279.73 213.51 288.36 214.91C294.12 215.85 299.89 216.96 305.72 216.94C311.76 216.92 317.73 215.68 323.88 215.61C332.46 214.62 341.04 213.65 349.64 212.87C352.85 212.58 356.06 212.31 359.27 212.05C365.1 211.57 370.95 211.09 376.86 211.15C395.25 210.92 413.62 209.73 432 207.43C463.08 204.52 494.39 201.43 524.41 192.27C539.13 187.79 553.93 183.03 567.23 175C579.04 168 591.59 161.72 601.41 151.38C608.86 143.97 614.37 134.82 618.93 125.36C623.49 115.89 627.18 106.03 631.5 96.45C633.78 91.38 636.25 86.4 638.88 81.5C641.48 76.66 644.25 71.91 646.85 66.79C651.11 59.02 655.4 51.25 660.44 43.97C667.76 33.39 676.63 23.89 686.65 15.78C699.5 8.07001 713.56 1.32001 728.54 0.840012C730.9 0.760012 733.26 0.850012 735.62 1.04001C744.93 1.81001 754.1 4.34001 762.43 8.54001C766.43 10.64 770.43 12.74 774.43 14.83C779.26 17.36 784.18 19.97 787.88 23.97C793.31 29.84 795.75 38.33 802.23 43C805.15 45.1 808.65 46.22 812.23 47.2C825.48 51.28 839.46 52.4 852.93 55.72C854.79 56.18 856.79 56.77 857.93 58.31C859.41 60.3 858.91 63.08 858.47 65.45C855.64 77.49 852.42 90.02 844.21 99.27C842.91 100.73 841.5 102.1 840.41 103.72C839.51 105.05 838.84 106.53 837.97 107.88C836.45 110.2 834.34 112.08 832.11 113.73C829.5 115.66 826.69 117.32 823.73 118.68C819.94 120.42 815.94 121.66 811.96 122.89C805.8 124.8 799.64 126.7 793.47 128.61C798.8 126.1 803.56 122.13 806.28 116.91C809 111.69 809.45 105.16 806.62 99.98C801.14 85.18 790.21 72.47 776.41 64.82C774.42 63.72 772.37 62.71 770.3 61.76C767.4 60.42 764.46 59.18 761.39 58.3C753.41 56.02 744.96 56.33 736.51 56.49C731.92 57.05 727.43 58.42 723.31 60.53C722.45 60.97 721.38 61.44 720.57 60.91C720.23 60.69 720.01 60.34 719.81 59.99C719.19 58.93 718.63 57.83 717.94 56.66C713.79 48.2 712.42 38.42 714.07 29.14C714.33 27.7 714.66 26.25 715.3 24.94C716.07 23.34 717.32 21.79 717.09 20.03C715.31 21.83 713.65 23.75 712.12 25.78C711.2 27 710.32 28.27 709.65 29.65C709.07 30.85 708.65 32.12 708.34 33.42C707.17 38.27 707.42 43.4 708.7 48.22C709.99 53.04 712.28 57.55 715.12 61.65C715.68 62.46 716.29 63.37 716.15 64.35C716.05 65.04 715.58 65.61 715.12 66.14C713.44 68.08 711.67 69.94 709.68 71.87C702.57 80.65 695.46 89.42 688.53 98.76C683.18 104.66 677.84 110.56 672.49 116.47C671.03 118.08 669.57 119.69 668.12 121.31C658.46 132.05 648.92 142.9 640.83 153.73Z" fill="#004C90" stroke="#004C90" stroke-miterlimit="10"/>
</svg>
